<?xml version="1.0" encoding="UTF-8" standalone="no"?>
<!DOCTYPE svg PUBLIC "-//W3C//DTD SVG 1.1//EN" "http://www.w3.org/Graphics/SVG/1.1/DTD/svg11.dtd">
<svg width="100%" height="100%" viewBox="0 0 1536 864" version="1.1" xmlns="http://www.w3.org/2000/svg" xmlns:xlink="http://www.w3.org/1999/xlink" xml:space="preserve" xmlns:serif="http://www.serif.com/" style="fill-rule:evenodd;clip-rule:evenodd;stroke-miterlimit:10;">
    <rect id="Prancheta1" x="0" y="0" width="1536" height="864" style="fill:none;"/>
    <g id="Prancheta11" serif:id="Prancheta1">
        <g transform="matrix(1,0,0,1,-208.644847,-461.668703)">
            <g transform="matrix(0.941954,-0,0,0.941395,1260.509385,521.312313)">
                <g transform="matrix(10.812808,0,0,10.58306,-6.212812,194.321109)">
                    <path d="M23.08,38.91L18.37,32.25L11.1,23.28L8.21,19.88L7.59,14.3L8.58,10.04L12.35,5.89L15.14,3.95L20.66,2.32L25.1,2.22L30.82,3.25L33.62,5.9L35.17,8.94C35.17,8.94 35.69,10.92 35.7,10.9C35.71,10.88 35.7,14.54 35.7,14.54L35.41,18.13L36.18,22.59L36.71,25.33L36.84,28.78L38.26,31.34L38.12,33.09L38.34,33.88L38.69,34.15L38.92,35.54L39.74,36.51L40.22,36.87L40.33,38.13L40.64,39.56L38.04,41.53L31.08,44.76L26.2,45.94L24.81,46.3L24.29,44.73L23.56,43.73L23.5,42.17L22.16,40.54L22.72,38.93L23.08,38.91Z" style="fill:white;fill-rule:nonzero;"/>
                </g>
                <g transform="matrix(10.812808,0,0,10.58306,-6.212812,194.321109)">
                    <path d="M23.44,32.33L22.52,31.96L22.63,32.38C23.76,31.4 24.94,30.45 26.28,29.76C27.4,29.19 28.6,28.87 29.84,28.68C30.73,28.54 31.62,28.46 32.51,28.39L32.27,28.07L32.01,29.02L32.25,28.84C29.67,28.84 27.1,29.61 24.94,31.03C24.32,31.44 23.74,31.89 23.2,32.4C22.96,32.62 23.32,32.97 23.55,32.75C25.38,31.06 27.69,29.93 30.15,29.51C30.84,29.39 31.55,29.34 32.25,29.34C32.36,29.34 32.46,29.26 32.49,29.16L32.75,28.21C32.79,28.06 32.67,27.88 32.51,27.89C31.01,28.01 29.49,28.15 28.03,28.55C26.76,28.9 25.59,29.5 24.51,30.25C23.73,30.8 22.99,31.4 22.27,32.02C22.11,32.16 22.22,32.38 22.38,32.44L23.3,32.81C23.43,32.86 23.58,32.75 23.61,32.63C23.65,32.49 23.56,32.37 23.43,32.32L23.44,32.33Z" style="fill:white;fill-rule:nonzero;"/>
                    <path d="M23.25,32.44L22.88,32.04C25.39,29.7 28.8,28.36 32.23,28.36L32.26,28.36L32.26,28.91L32.23,28.91C28.93,28.91 25.66,30.2 23.25,32.44Z" style="fill-rule:nonzero;"/>
                    <g>
                        <path d="M26.25,30.41C25.03,26.83 23.41,23.38 21.48,20.13C20.95,19.24 20.4,18.36 19.81,17.51C19.74,17.41 19.64,17.37 19.53,17.39C18.42,17.64 17.26,17.72 16.15,17.43C15.25,17.19 14.33,16.7 13.84,15.88C13.59,15.46 13.48,14.97 13.61,14.49C13.74,14.01 14.08,13.68 14.5,13.46C15.45,12.95 16.54,13.2 17.37,13.83C17.82,14.17 18.19,14.6 18.54,15.04C18.97,15.58 19.38,16.15 19.77,16.72C19.83,16.81 19.94,16.87 20.05,16.84C20.84,16.62 21.6,16.33 22.36,16.04C23.12,15.75 23.84,15.44 24.53,15.05C24.63,14.99 24.66,14.88 24.65,14.77C24.54,14.14 24.43,13.5 24.34,12.86C24.25,12.22 24.18,11.61 24.27,10.98C24.4,10.05 24.94,9.08 25.88,8.78C26.3,8.64 26.78,8.63 27.2,8.8C27.59,8.96 27.89,9.3 28.03,9.7C28.36,10.59 28.13,11.63 27.73,12.45C27.19,13.55 26.31,14.41 25.29,15.07C25.19,15.14 25.15,15.24 25.17,15.35C25.85,19.07 26.83,22.73 28.06,26.3C28.4,27.29 28.76,28.26 29.14,29.23L29.32,28.92L28.42,29.11L28.73,29.29C27.38,25.86 26.29,22.33 25.46,18.74C25.23,17.73 25.01,16.71 24.82,15.69C24.79,15.52 24.58,15.47 24.45,15.54C23.81,15.88 23.15,16.16 22.48,16.42C21.81,16.68 21.14,16.92 20.46,17.13C20.31,17.17 20.22,17.36 20.31,17.5C22.34,20.53 24.04,23.77 25.4,27.15C25.79,28.11 26.15,29.09 26.49,30.07L26.61,29.79L25.89,30.26C25.62,30.43 25.87,30.87 26.14,30.69L26.86,30.22C26.95,30.16 27.01,30.04 26.98,29.94C25.79,26.42 24.23,23.02 22.36,19.81C21.85,18.94 21.32,18.09 20.76,17.25L20.61,17.62C21.31,17.4 22,17.15 22.68,16.89C23.36,16.63 24.06,16.33 24.72,15.98L24.35,15.83C25.04,19.47 25.99,23.05 27.2,26.55C27.53,27.51 27.89,28.47 28.26,29.42C28.31,29.55 28.42,29.63 28.57,29.6L29.47,29.41C29.59,29.38 29.69,29.22 29.65,29.1C28.28,25.6 27.17,21.99 26.33,18.33C26.09,17.3 25.88,16.26 25.69,15.21L25.57,15.49C26.59,14.83 27.49,13.98 28.08,12.91C28.59,11.98 28.9,10.8 28.61,9.75C28.47,9.25 28.19,8.8 27.76,8.51C27.33,8.22 26.76,8.12 26.24,8.18C25.1,8.33 24.28,9.22 23.95,10.29C23.73,11.01 23.74,11.77 23.83,12.51C23.93,13.31 24.07,14.1 24.2,14.89L24.32,14.61C23.65,14.99 22.94,15.29 22.22,15.57C21.5,15.85 20.73,16.13 19.96,16.35L20.24,16.47C19.84,15.9 19.43,15.34 19,14.79C18.66,14.35 18.3,13.92 17.86,13.57C17.42,13.22 16.9,12.9 16.33,12.77C15.76,12.64 15.13,12.68 14.59,12.89C14.05,13.1 13.59,13.46 13.32,13.97C13.05,14.48 13.02,15.08 13.2,15.62C13.56,16.68 14.53,17.39 15.54,17.77C16.87,18.27 18.33,18.2 19.7,17.89L19.42,17.77C21.51,20.85 23.28,24.16 24.7,27.6C25.1,28.57 25.47,29.56 25.81,30.55C25.91,30.85 26.4,30.72 26.29,30.42L26.25,30.41Z" style="fill:white;fill-rule:nonzero;"/>
                        <path d="M15.76,13.59C15.23,13.56 14.61,13.73 14.25,14.15C13.86,14.61 13.91,15.21 14.22,15.7C14.81,16.61 15.95,17.03 16.98,17.16C17.69,17.25 18.4,17.18 19.1,17.05C19.25,17.02 19.34,16.81 19.25,16.68C18.76,16 18.28,15.3 17.71,14.69C17.19,14.13 16.54,13.65 15.76,13.59C15.44,13.56 15.44,14.07 15.76,14.09C16.43,14.14 16.99,14.64 17.42,15.12C17.93,15.68 18.37,16.32 18.81,16.93L18.96,16.56C17.98,16.74 16.96,16.76 16.01,16.42C15.63,16.28 15.24,16.08 14.95,15.8C14.66,15.52 14.33,15.07 14.51,14.65C14.7,14.2 15.32,14.07 15.76,14.09C16.08,14.11 16.08,13.6 15.76,13.59Z" style="fill:white;fill-rule:nonzero;"/>
                        <path d="M26.6,9.07C25.55,9.02 24.85,9.97 24.7,10.92C24.61,11.47 24.65,12.02 24.72,12.57C24.8,13.17 24.9,13.77 25,14.37C25.03,14.52 25.24,14.61 25.37,14.52C26.17,13.94 26.88,13.22 27.33,12.33C27.67,11.64 27.9,10.78 27.7,10.02C27.56,9.47 27.16,9.13 26.6,9.08C26.28,9.05 26.28,9.55 26.6,9.58C27.55,9.66 27.28,11.08 27.07,11.66C26.72,12.66 25.96,13.48 25.11,14.08L25.48,14.23C25.39,13.71 25.3,13.18 25.23,12.65C25.16,12.17 25.11,11.68 25.16,11.2C25.24,10.43 25.71,9.53 26.6,9.57C26.92,9.58 26.92,9.08 26.6,9.07Z" style="fill:white;fill-rule:nonzero;"/>
                    </g>
                </g>
                <g transform="matrix(10.812808,0,0,10.58306,-6.212812,194.321109)">
                    <path d="M24.29,36.72C22.8,34.2 21.14,31.79 19.3,29.52C18.57,28.62 17.82,27.75 17.03,26.9C16.19,25.99 15.31,25.11 14.45,24.22C13.65,23.39 12.85,22.57 12.11,21.68C11.96,21.5 11.81,21.31 11.66,21.12C11.65,21.1 11.6,21.04 11.65,21.1C11.64,21.08 11.62,21.06 11.61,21.04C11.57,20.99 11.54,20.95 11.5,20.9C11.43,20.81 11.36,20.71 11.3,20.62C11.04,20.26 10.81,19.89 10.59,19.5C10.07,18.59 9.66,17.72 9.49,16.69C9.47,16.56 9.46,16.48 9.44,16.31C9.43,16.16 9.42,16.01 9.42,15.87C9.42,15.59 9.42,15.31 9.45,15.04C9.45,14.97 9.46,14.9 9.47,14.82C9.48,14.72 9.47,14.77 9.49,14.67C9.51,14.53 9.54,14.39 9.56,14.25C9.61,13.98 9.68,13.71 9.76,13.45C9.84,13.19 9.92,12.94 10.01,12.69C10.05,12.58 10.09,12.47 10.14,12.35C10.16,12.29 10.19,12.23 10.21,12.17C10.26,12.05 10.19,12.21 10.22,12.14C10.24,12.1 10.25,12.07 10.27,12.03C10.45,11.61 10.66,11.2 10.88,10.8C11.15,10.32 11.44,9.84 11.77,9.4C11.8,9.36 11.88,9.26 11.76,9.42L11.12,9.34C11.56,10.35 12.06,11.37 12.73,12.24C12.98,12.56 13.27,12.85 13.56,13.15C13.89,13.49 14.23,13.83 14.57,14.16C15.25,14.82 15.94,15.46 16.65,16.07C18.1,17.32 19.62,18.49 21.2,19.56C22.78,20.63 24.4,21.6 26.08,22.47C27.76,23.34 29.48,24.07 31.22,24.77C31.93,25.06 32.73,25.42 33.29,25.95C33.36,26.01 33.42,26.08 33.48,26.15C33.55,26.23 33.6,26.29 33.65,26.36C33.7,26.43 33.75,26.51 33.8,26.59C33.8,26.6 33.81,26.61 33.82,26.63C33.86,26.69 33.8,26.58 33.8,26.59C33.8,26.63 33.83,26.75 33.85,26.77C33.84,26.75 33.84,26.65 33.85,26.72L33.85,26.99C33.85,27.06 33.86,26.92 33.85,26.95C33.85,26.97 33.85,26.99 33.84,27.01C33.82,27.09 33.8,27.18 33.78,27.26C33.75,27.35 33.72,27.43 33.69,27.51C33.69,27.53 33.65,27.6 33.69,27.53C33.72,27.46 33.69,27.55 33.67,27.56C33.65,27.61 33.63,27.65 33.61,27.7C33.4,28.13 33.13,28.54 32.85,28.92C32.81,28.97 32.78,29.02 32.74,29.07C32.72,29.1 32.7,29.13 32.67,29.16C32.67,29.17 32.65,29.19 32.64,29.2C32.6,29.25 32.68,29.15 32.64,29.2C32.55,29.31 32.46,29.42 32.37,29.53C32.18,29.77 31.98,30 31.77,30.23C31.33,30.72 30.88,31.19 30.41,31.65C29.92,32.13 29.41,32.6 28.89,33.05C28.63,33.28 28.36,33.5 28.09,33.72C27.95,33.83 27.82,33.94 27.68,34.05C27.62,34.1 27.56,34.15 27.5,34.19C27.47,34.21 27.44,34.24 27.41,34.26C27.39,34.28 27.37,34.29 27.35,34.31C27.38,34.28 27.36,34.3 27.35,34.31C26.41,35.03 25.43,35.73 24.37,36.28C24.26,36.34 24.16,36.39 24.05,36.44C24,36.46 23.95,36.49 23.91,36.51C23.88,36.52 23.86,36.54 23.83,36.55C23.8,36.56 23.71,36.59 23.83,36.55L24.05,36.55C24.15,36.64 24.24,36.74 24.34,36.83L24.34,37.04C24.37,36.94 24.38,36.86 24.36,36.75C24.34,36.61 24.2,36.5 24.07,36.46C23.99,36.44 23.9,36.44 23.82,36.46C23.61,36.53 23.47,36.75 23.53,36.96C23.59,37.17 23.82,37.31 24.03,37.25L24.05,37.25L23.83,37.25C23.73,37.16 23.64,37.06 23.54,36.97L23.54,36.76C23.51,36.86 23.5,36.94 23.52,37.05C23.54,37.19 23.68,37.3 23.81,37.34C24.07,37.42 24.45,37.16 24.68,37.04C24.91,36.92 25.14,36.79 25.37,36.66C25.89,36.35 26.4,36.01 26.89,35.66C28.03,34.85 29.12,33.96 30.15,33.01C31.18,32.06 32.08,31.17 32.92,30.14C33.56,29.36 34.22,28.51 34.54,27.54C34.65,27.2 34.71,26.82 34.62,26.47C34.55,26.2 34.37,25.96 34.19,25.75C33.92,25.41 33.58,25.13 33.22,24.88C32.49,24.39 31.66,24.09 30.85,23.77C29.97,23.42 29.11,23.05 28.25,22.65C26.51,21.84 24.82,20.92 23.19,19.9C21.56,18.88 20.01,17.79 18.53,16.6C17.05,15.41 15.61,14.1 14.27,12.72C13.97,12.42 13.67,12.12 13.4,11.79C13.39,11.78 13.38,11.76 13.37,11.75C13.38,11.76 13.41,11.81 13.37,11.75C13.35,11.72 13.33,11.69 13.3,11.66C13.25,11.59 13.2,11.51 13.15,11.44C13.05,11.29 12.95,11.13 12.86,10.97C12.53,10.42 12.24,9.84 11.97,9.25C11.92,9.15 11.88,9.05 11.83,8.95C11.73,8.72 11.34,8.67 11.19,8.87C10.36,9.94 9.72,11.18 9.25,12.44C8.85,13.52 8.6,14.67 8.61,15.82C8.61,16.42 8.69,17.03 8.86,17.62C9.01,18.16 9.25,18.68 9.5,19.19C10.37,20.99 11.67,22.49 13.04,23.93C14.72,25.7 16.47,27.41 18.04,29.28C19.86,31.43 21.5,33.72 22.98,36.12C23.19,36.46 23.4,36.81 23.61,37.16C23.88,37.61 24.59,37.2 24.32,36.75L24.29,36.72Z" style="fill:white;fill-rule:nonzero;"/>
                    <path d="M23.92,37.26C23.82,37.26 23.74,37.22 23.69,37.17C23.66,37.14 23.61,37.08 23.59,36.98C21.24,33.02 18.51,29.44 15.46,26.32L14.96,25.8C11.7,22.46 10.35,21.07 9.18,18.32C8.42,16.52 8.53,14.32 9.5,11.97C10.23,10.21 11.17,9 11.2,8.95L11.75,9.02C11.75,9.02 12.7,11.21 13.49,12.05C18.3,17.2 24.31,21.29 30.88,23.87L30.97,23.9C32.24,24.4 33.68,24.96 34.42,26.21C34.62,26.54 34.63,26.98 34.46,27.5C33.87,29.33 31.25,31.87 30.15,32.88C27.98,34.87 25.65,36.53 24.07,37.22C24.02,37.24 23.97,37.25 23.92,37.25L23.92,37.26ZM23.69,37.07L23.7,37.08C23.8,37.18 23.94,37.18 24.02,37.15L23.92,36.93L23.68,37.07L23.69,37.07ZM11.41,9.78C11.08,10.27 10.54,11.15 10.1,12.22C9.47,13.74 8.9,15.99 9.78,18.06C10.89,20.7 12.22,22.06 15.42,25.34L15.92,25.86C18.97,28.98 21.71,32.57 24.07,36.52C25.58,35.8 27.71,34.25 29.72,32.41C31.93,30.38 33.48,28.48 33.85,27.31C33.93,27.07 33.99,26.75 33.87,26.54C33.24,25.48 31.97,24.98 30.74,24.5L30.65,24.47C24,21.86 17.91,17.71 13.03,12.49C12.41,11.83 11.75,10.52 11.41,9.79L11.41,9.78Z" style="fill:white;fill-rule:nonzero;"/>
                    <path d="M23.94,36.93C21,31.96 17.99,28.44 15.69,26.08C12.09,22.39 10.67,21.02 9.48,18.19C7.7,13.97 11.47,9.14 11.47,9.14C11.47,9.14 12.43,11.37 13.27,12.26C18.12,17.46 24.15,21.56 30.77,24.16C32.05,24.66 33.45,25.19 34.15,26.37C35.28,28.28 27.67,35.3 23.95,36.93C23.86,36.97 23.99,36.82 23.91,36.86" style="fill:rgb(126,48,225);fill-rule:nonzero;"/>
                </g>
                <g transform="matrix(10.812808,0,0,10.58306,-6.212812,194.321109)">
                    <path d="M41.56,38.97C41.55,38.66 41.38,38.38 41.14,38.22C41.23,38.02 41.32,37.78 41.33,37.51C41.35,36.78 40.81,36.39 40.38,36.08L40.35,36.06C40.35,36.06 40.33,36.04 40.32,36.04C40.31,36.04 40.26,35.98 40.23,35.96C40.2,35.93 40.16,35.87 40.15,35.85C40.07,35.68 40.07,35.51 40.06,35.3L40.06,35.13C40.04,34.62 40.02,34.03 39.68,33.55C39.47,33.25 39.18,33.12 38.9,33.03C38.75,32.38 38.61,31.73 38.45,30.96C38.05,29.01 37.69,27.05 37.4,25.12C36.98,22.42 36.7,20 36.55,17.71C36.5,17 36.48,16.28 36.46,15.58C36.41,14.03 36.36,12.42 36.04,10.85C35.68,9.02 35.04,7.42 34.15,6.08C33.32,4.83 32.27,3.8 31.02,3C29.91,2.29 28.64,1.76 27.23,1.43C26.03,1.15 24.74,1.01 23.4,1.01L23.19,1.01C21.94,1.02 20.64,1.16 19.34,1.41C18.21,1.63 17.15,1.92 16.17,2.28C14.96,2.73 13.8,3.36 12.72,4.17C11.2,5.29 9.9,6.61 8.85,8.09C7.64,9.79 6.86,11.66 6.57,13.48C6.23,15.65 6.57,17.92 7.55,20.04C8.09,21.2 8.81,22.32 9.77,23.48C10.4,24.24 11.08,24.97 11.75,25.67C12.09,26.03 12.44,26.4 12.78,26.77C14.56,28.73 16.01,30.39 17.34,31.99C17.93,32.7 18.45,33.35 18.94,33.98L19.07,34.14C19.12,34.21 19.18,34.28 19.23,34.35C19.34,34.49 19.44,34.63 19.55,34.77C19.75,35.03 19.94,35.29 20.11,35.54C20.55,36.15 21.11,36.96 21.6,37.82C21.75,38.09 21.88,38.32 21.98,38.55C21.99,38.58 22.01,38.61 22.02,38.63C22.03,38.67 22.05,38.71 22.07,38.75C22.09,38.81 22.12,38.88 22.14,38.94C22.15,38.98 22.17,39.03 22.18,39.07C21.7,39.77 21.74,40.31 21.88,40.65C22.05,41.08 22.38,41.35 22.67,41.59C22.72,41.65 22.78,41.69 22.84,41.73C22.9,41.78 22.95,41.83 23,41.88C23.07,41.95 23.12,42.01 23.16,42.08C23.19,42.14 23.19,42.15 23.19,42.15C23.19,42.15 23.19,42.17 23.17,42.2C23.14,42.26 23.1,42.31 23.07,42.38C23.04,42.42 23.02,42.46 22.99,42.51C22.8,42.84 22.72,43.14 22.74,43.43C22.77,43.8 22.96,44.15 23.27,44.41C23.41,44.53 23.57,44.62 23.71,44.71C23.78,44.75 23.84,44.79 23.9,44.83C23.8,44.97 23.74,45.15 23.73,45.34C23.73,45.6 23.83,45.85 24,46.01C24.03,46.03 24.05,46.05 24.08,46.08C24.4,46.57 25.02,46.82 25.58,46.82C26.14,46.82 25.63,46.82 25.65,46.82C26.02,46.8 26.37,46.71 26.71,46.61C27.01,46.52 27.32,46.43 27.63,46.34C28.78,45.99 29.94,45.57 31.18,45.07C33.62,44.08 35.98,42.93 38.16,41.83C38.32,41.75 38.49,41.67 38.65,41.59C39.08,41.38 39.53,41.16 39.96,40.92C40.69,40.51 41.17,40.05 41.41,39.51C41.44,39.45 41.46,39.38 41.47,39.31C41.51,39.21 41.53,39.09 41.52,38.97L41.56,38.97ZM23.27,40.2C23.27,40.2 23.25,40.18 23.25,40.16C23.25,40.14 23.25,40.16 23.25,40.16C23.26,40.11 23.27,40.11 23.28,40.08C23.31,40.01 23.36,39.94 23.41,39.87C25.26,38.89 27.17,37.99 29.12,37.2C29.15,37.2 29.18,37.19 29.2,37.18C31.55,36.56 33.9,36.25 36.18,36.25C36.46,36.25 36.75,36.25 37.04,36.26C37.62,36.28 38.22,36.32 38.8,36.39C38.82,36.44 38.84,36.48 38.86,36.53C38.93,36.67 39.02,36.8 39.12,36.9C38.57,36.86 38,36.85 37.44,36.85C36.13,36.85 34.76,36.95 33.36,37.14C30.98,37.46 28.65,38.05 26.44,38.89C25.35,39.3 24.31,39.76 23.33,40.27C23.31,40.25 23.3,40.23 23.29,40.22L23.27,40.2ZM37.99,34.3C38.09,34.33 38.19,34.35 38.28,34.38C38.35,34.4 38.42,34.41 38.49,34.43C38.55,34.57 38.57,34.73 38.58,34.89C37.79,34.81 36.98,34.78 36.17,34.78C36.77,34.61 37.38,34.45 37.99,34.3ZM25.03,43.88C24.96,43.81 24.89,43.75 24.82,43.7C25.27,43.46 25.72,43.23 26.18,43.02C25.79,43.29 25.41,43.58 25.03,43.88ZM34.38,39.1C31.53,39.49 28.75,40.28 26.11,41.45C25.62,41.67 25.13,41.9 24.65,42.14C24.65,42.01 24.63,41.88 24.6,41.76C24.55,41.6 24.49,41.46 24.41,41.33C26.07,40.51 27.88,39.83 29.81,39.32C32.07,38.72 34.36,38.38 36.59,38.31C36.87,38.31 37.15,38.3 37.43,38.3C37.68,38.3 37.93,38.3 38.18,38.31C36.9,38.49 35.63,38.75 34.39,39.11L34.38,39.1ZM15.88,3.35L15.85,3.27L15.88,3.35ZM20.26,33.32C19.24,31.99 18.08,30.58 16.71,29C15.95,28.12 15.16,27.22 14.28,26.26C13.81,25.74 13.32,25.22 12.86,24.71C12.36,24.17 11.85,23.62 11.35,23.07C9.52,21.04 8.4,18.93 8.02,16.78C7.86,15.87 7.84,14.89 7.96,13.94L7.96,13.92C7.96,13.92 7.96,13.86 7.97,13.84C7.97,13.78 7.99,13.73 8,13.67C8.02,13.56 8.04,13.44 8.06,13.33C8.11,13.1 8.16,12.87 8.23,12.64C8.35,12.2 8.5,11.76 8.68,11.33C8.82,11 9.05,10.53 9.25,10.17C9.46,9.79 9.7,9.4 9.96,9.02C10.22,8.64 10.44,8.35 10.74,7.99C11.02,7.66 11.32,7.33 11.63,7.01C11.92,6.71 12.24,6.42 12.55,6.14C12.7,6.01 12.86,5.87 13.02,5.75C13.1,5.69 13.18,5.62 13.26,5.56L13.32,5.51C13.32,5.51 13.4,5.45 13.44,5.42C14.06,4.96 14.68,4.56 15.29,4.24C15.53,4.11 15.78,3.99 16.05,3.88L16.11,3.85C16.11,3.85 16.21,3.81 16.26,3.79C16.37,3.75 16.47,3.71 16.58,3.67C17.02,3.5 17.5,3.35 18,3.21C18.53,3.06 19.07,2.94 19.62,2.83C19.91,2.77 20.2,2.72 20.5,2.68C20.57,2.67 20.64,2.66 20.71,2.65L20.78,2.65L20.86,2.63C21.01,2.61 21.16,2.59 21.31,2.58C22.01,2.51 22.7,2.47 23.37,2.47C23.95,2.47 24.52,2.5 25.07,2.55C25.22,2.56 25.37,2.58 25.54,2.6L25.57,2.6C25.57,2.6 25.65,2.62 25.69,2.62C25.77,2.63 25.86,2.65 25.94,2.66C26.25,2.71 26.57,2.77 26.87,2.85C27.5,3 28.11,3.19 28.68,3.43C28.69,3.43 28.74,3.46 28.75,3.46C28.77,3.47 28.8,3.48 28.82,3.49C28.89,3.52 28.96,3.55 29.03,3.59C29.18,3.66 29.32,3.73 29.47,3.8C29.75,3.95 30.02,4.11 30.29,4.28C30.43,4.37 30.56,4.46 30.69,4.56C30.75,4.6 30.81,4.65 30.87,4.69L30.89,4.69L30.93,4.74C30.96,4.76 30.98,4.78 31.01,4.8C31.26,5 31.5,5.22 31.73,5.45C31.97,5.69 32.2,5.94 32.41,6.2C32.43,6.23 32.45,6.25 32.47,6.28L32.5,6.32C32.55,6.4 32.61,6.48 32.66,6.55C32.76,6.7 32.87,6.85 32.96,7C33.15,7.3 33.33,7.62 33.5,7.95C33.58,8.12 33.67,8.29 33.74,8.47C33.76,8.51 33.77,8.55 33.79,8.59C33.81,8.63 33.8,8.63 33.81,8.64L33.81,8.67C33.86,8.76 33.9,8.85 33.93,8.95C34.54,10.56 34.85,12.3 34.91,14.42C34.95,15.81 34.98,16.96 35.07,18.17C35.16,19.39 35.28,20.63 35.45,21.98C35.72,24.18 36.07,26.49 36.51,28.85C36.78,30.32 37.05,31.66 37.34,32.96C33.41,33.94 29.54,35.31 25.83,37.02C25.01,37.4 24.19,37.8 23.38,38.22C23.34,38.13 23.3,38.03 23.25,37.94C22.96,37.3 22.59,36.7 22.27,36.2C21.72,35.34 21.08,34.45 20.22,33.34L20.26,33.32ZM34.6,41.79C32.08,43 30.07,43.83 28.1,44.49C27.58,44.66 27.07,44.82 26.57,44.97C26.99,44.65 27.43,44.35 27.87,44.06C28.79,43.45 29.77,42.9 30.77,42.41C31.02,42.29 31.28,42.17 31.53,42.05C31.65,42 31.77,41.94 31.89,41.89L32,41.84C32.07,41.81 32.14,41.78 32.21,41.75C32.73,41.54 33.26,41.34 33.79,41.17C34.84,40.82 35.93,40.53 37.01,40.32C37.3,40.26 37.58,40.21 37.87,40.17C37.85,40.18 37.82,40.19 37.8,40.21C36.85,40.69 35.72,41.26 34.59,41.8L34.6,41.79Z" style="fill:white;fill-rule:nonzero;"/>
                    <path d="M25.07,45.79C25.28,45.6 25.5,45.42 25.72,45.24C25.83,45.15 25.94,45.06 26.05,44.97C26.07,44.95 26.09,44.94 26.11,44.92C26.12,44.92 26.21,44.84 26.16,44.88C26.11,44.92 26.19,44.85 26.21,44.85C26.25,44.82 26.28,44.8 26.32,44.77C26.77,44.43 27.24,44.1 27.71,43.79C28.65,43.17 29.63,42.61 30.65,42.12C30.91,42 31.16,41.88 31.42,41.76C31.54,41.71 31.66,41.65 31.79,41.6C31.82,41.59 31.86,41.57 31.89,41.56C31.79,41.6 31.88,41.56 31.89,41.56C31.96,41.53 32.04,41.5 32.11,41.47C32.64,41.26 33.17,41.06 33.71,40.88C34.78,40.52 35.87,40.23 36.97,40.02C37.28,39.96 37.6,39.9 37.91,39.85C38.07,39.82 38.23,39.8 38.38,39.78C38.42,39.78 38.45,39.78 38.49,39.77C38.4,39.78 38.47,39.77 38.52,39.77C38.6,39.76 38.68,39.75 38.76,39.74C39.39,39.66 40.03,39.61 40.67,39.58C40.98,39.57 41.27,39.32 41.26,38.99C41.25,38.68 41,38.39 40.67,38.4C38.33,38.5 36.01,38.92 33.78,39.63C31.55,40.34 29.41,41.33 27.44,42.59C26.32,43.3 25.26,44.1 24.25,44.97C24.02,45.17 24.03,45.6 24.25,45.8C24.5,46.03 24.83,46.02 25.08,45.8L25.07,45.79Z" style="fill:rgb(126,48,225);fill-rule:nonzero;"/>
                    <path d="M40.66,38.65C40.66,38.65 40.68,38.67 40.7,38.68C40.7,38.68 40.65,38.61 40.7,38.68C40.7,38.68 40.7,38.62 40.7,38.65C40.7,38.7 40.7,38.61 40.7,38.6L40.7,38.54C40.7,38.6 40.7,38.53 40.7,38.52C40.71,38.46 40.73,38.41 40.75,38.35C40.85,38.1 41.02,37.81 41.03,37.5C41.05,36.93 40.6,36.62 40.19,36.32C40.17,36.31 40.16,36.3 40.14,36.28C40.08,36.24 40.18,36.31 40.12,36.27C40.08,36.24 40.05,36.21 40.01,36.17C39.95,36.11 39.89,36.02 39.86,35.96C39.76,35.74 39.75,35.53 39.74,35.29C39.72,34.76 39.74,34.17 39.41,33.72C39.12,33.32 38.62,33.3 38.19,33.16C37.69,33 37.47,33.79 37.97,33.95C38.17,34.01 38.38,34.06 38.59,34.11C38.62,34.11 38.65,34.13 38.69,34.14C38.79,34.17 38.63,34.12 38.69,34.14C38.71,34.14 38.72,34.16 38.73,34.16C38.73,34.16 38.66,34.09 38.7,34.14C38.77,34.21 38.7,34.1 38.72,34.16C38.95,34.59 38.88,35.05 38.93,35.53C38.96,35.82 39.01,36.09 39.14,36.35C39.26,36.59 39.45,36.77 39.66,36.93C39.74,36.99 39.82,37.05 39.9,37.1C40,37.17 40,37.16 40.1,37.27C40.12,37.29 40.14,37.31 40.15,37.33C40.15,37.33 40.12,37.28 40.15,37.33C40.16,37.35 40.2,37.45 40.18,37.39C40.21,37.49 40.18,37.57 40.15,37.67C40.04,37.96 39.89,38.21 39.87,38.52C39.84,38.86 39.99,39.14 40.25,39.34C40.43,39.47 40.71,39.37 40.81,39.19C40.93,38.98 40.84,38.76 40.66,38.63L40.66,38.65Z" style="fill:rgb(126,48,225);fill-rule:nonzero;"/>
                    <path d="M25.05,45.42C25.43,44.92 25.07,44.28 24.64,43.96C24.46,43.83 24.22,43.72 24.06,43.59C23.98,43.52 23.92,43.46 23.88,43.37L23.88,43.31C23.88,43.31 23.87,43.36 23.88,43.31C23.88,43.28 23.9,43.24 23.91,43.21C23.89,43.25 23.95,43.14 23.95,43.13C23.98,43.08 24,43.04 24.03,42.99C24.09,42.89 24.15,42.8 24.2,42.69C24.33,42.42 24.37,42.13 24.29,41.84C24.14,41.29 23.68,40.98 23.28,40.63C23.2,40.56 23.08,40.45 23.03,40.38C23.02,40.36 23,40.34 22.99,40.32C22.99,40.31 22.94,40.23 22.96,40.28C22.96,40.26 22.95,40.24 22.94,40.22L22.94,40.18C22.94,40.18 22.94,40.1 22.94,40.16C22.94,40.13 22.95,40.1 22.96,40.07C22.98,40.01 22.98,39.98 23.01,39.94C23.07,39.81 23.15,39.69 23.24,39.58C23.38,39.41 23.41,39.17 23.24,39C23.09,38.85 22.8,38.83 22.66,39C22.31,39.41 21.97,40 22.19,40.55C22.39,41.06 22.87,41.31 23.24,41.68C23.32,41.76 23.39,41.84 23.45,41.94C23.5,42.03 23.53,42.09 23.52,42.18C23.52,42.25 23.49,42.31 23.46,42.37C23.4,42.48 23.33,42.58 23.27,42.68C23.14,42.9 23.04,43.15 23.07,43.41C23.1,43.71 23.26,43.98 23.49,44.18C23.72,44.38 23.99,44.49 24.21,44.66C24.23,44.68 24.25,44.69 24.27,44.71C24.28,44.72 24.35,44.79 24.32,44.75C24.34,44.77 24.35,44.8 24.37,44.83C24.37,44.84 24.4,44.89 24.38,44.85C24.38,44.88 24.4,44.91 24.4,44.93C24.4,44.87 24.4,44.98 24.4,44.93C24.4,44.9 24.4,44.95 24.4,44.96C24.43,44.9 24.36,45.01 24.36,45.01C24.23,45.19 24.33,45.47 24.51,45.57C24.72,45.69 24.94,45.6 25.07,45.42L25.05,45.42Z" style="fill:rgb(126,48,225);fill-rule:nonzero;"/>
                    <path d="M38.14,33.09C33.97,34.09 29.9,35.5 26,37.3C24.89,37.81 23.8,38.36 22.73,38.93L23.33,39.39C23.37,39.26 23.34,39.09 23.33,38.96C23.28,38.64 23.14,38.34 23.01,38.05C22.74,37.46 22.4,36.9 22.05,36.35C21.42,35.37 20.73,34.43 20.02,33.51C18.89,32.04 17.7,30.61 16.48,29.21C15.68,28.29 14.87,27.38 14.06,26.47C13.09,25.4 12.09,24.35 11.13,23.28C9.49,21.45 8.16,19.28 7.72,16.83C7.55,15.9 7.53,14.87 7.66,13.89C7.67,13.8 7.66,13.85 7.66,13.86C7.66,13.83 7.66,13.8 7.67,13.77C7.67,13.71 7.69,13.65 7.7,13.59C7.72,13.47 7.74,13.36 7.77,13.24C7.82,13 7.88,12.76 7.94,12.53C8.07,12.07 8.22,11.62 8.41,11.18C8.55,10.84 8.79,10.36 9,9.98C9.22,9.58 9.47,9.19 9.73,8.81C10.01,8.41 10.23,8.12 10.53,7.76C10.83,7.4 11.12,7.08 11.44,6.76C11.76,6.44 12.06,6.16 12.38,5.88C12.54,5.74 12.7,5.61 12.86,5.48C12.94,5.42 13.02,5.35 13.1,5.29C13.1,5.29 13.16,5.24 13.1,5.29C13.12,5.27 13.14,5.26 13.16,5.24C13.2,5.21 13.24,5.18 13.28,5.15C13.88,4.7 14.51,4.29 15.17,3.95C15.43,3.82 15.69,3.69 15.95,3.58C16.01,3.56 16.01,3.55 15.95,3.58C15.98,3.57 16,3.56 16.03,3.55C16.08,3.53 16.13,3.51 16.18,3.49C16.29,3.45 16.4,3.4 16.51,3.36C16.98,3.18 17.47,3.03 17.95,2.89C18.49,2.74 19.04,2.61 19.6,2.5C19.9,2.44 20.19,2.39 20.49,2.35C20.56,2.34 20.63,2.33 20.7,2.32C20.71,2.32 20.84,2.3 20.77,2.31C20.71,2.31 20.83,2.31 20.86,2.3C21.01,2.28 21.16,2.26 21.32,2.25C22.59,2.12 23.87,2.09 25.15,2.22C25.31,2.24 25.47,2.26 25.63,2.28C25.71,2.28 25.63,2.28 25.61,2.28L25.67,2.28C25.71,2.28 25.75,2.29 25.79,2.3C25.87,2.31 25.96,2.33 26.04,2.34C26.36,2.39 26.67,2.46 26.99,2.53C27.62,2.68 28.24,2.87 28.85,3.12C28.88,3.13 28.98,3.17 28.89,3.14C28.93,3.16 28.96,3.17 29,3.19C29.07,3.22 29.15,3.26 29.22,3.29C29.37,3.36 29.52,3.43 29.67,3.51C29.96,3.66 30.24,3.82 30.51,4C30.65,4.09 30.79,4.19 30.93,4.29C30.99,4.34 31.05,4.38 31.12,4.43C31.2,4.49 31.08,4.4 31.16,4.46C31.2,4.49 31.23,4.52 31.27,4.55C31.53,4.76 31.78,4.98 32.02,5.22C32.26,5.46 32.5,5.73 32.72,6C32.75,6.03 32.77,6.07 32.8,6.1C32.86,6.17 32.78,6.08 32.83,6.13C32.89,6.21 32.94,6.28 33,6.36C33.11,6.51 33.21,6.67 33.31,6.82C33.51,7.14 33.7,7.46 33.86,7.8C33.95,7.97 34.03,8.15 34.11,8.33C34.13,8.38 34.15,8.42 34.17,8.47C34.14,8.4 34.19,8.53 34.2,8.55C34.24,8.64 34.28,8.74 34.31,8.83C35,10.64 35.26,12.5 35.31,14.41C35.34,15.66 35.38,16.9 35.47,18.14C35.56,19.38 35.69,20.67 35.84,21.94C36.12,24.23 36.48,26.52 36.9,28.79C37.16,30.2 37.44,31.61 37.76,33.02C37.8,33.21 37.85,33.41 37.89,33.6C38.01,34.11 38.8,33.9 38.68,33.38C38.49,32.6 38.33,31.81 38.16,31.02C37.76,29.08 37.41,27.13 37.1,25.17C36.72,22.7 36.41,20.22 36.25,17.73C36.1,15.45 36.19,13.16 35.75,10.91C35.42,9.27 34.84,7.66 33.91,6.26C33.12,5.06 32.09,4.04 30.88,3.27C29.75,2.55 28.49,2.05 27.19,1.75C25.89,1.45 24.56,1.32 23.23,1.34C21.9,1.36 20.68,1.49 19.43,1.73C18.37,1.93 17.33,2.21 16.32,2.59C15.11,3.04 13.98,3.66 12.95,4.44C11.49,5.52 10.2,6.81 9.15,8.29C8.04,9.85 7.22,11.65 6.93,13.54C6.59,15.73 6.96,17.91 7.89,19.91C8.45,21.13 9.21,22.25 10.07,23.28C11.01,24.42 12.07,25.47 13.06,26.56C14.62,28.27 16.15,30.01 17.63,31.79C18.18,32.45 18.71,33.12 19.24,33.79C19.27,33.83 19.3,33.86 19.33,33.9C19.34,33.92 19.36,33.94 19.37,33.95C19.37,33.94 19.32,33.89 19.37,33.95C19.42,34.02 19.48,34.09 19.53,34.16C19.64,34.3 19.75,34.44 19.85,34.59C20.04,34.85 20.23,35.1 20.42,35.36C20.96,36.11 21.48,36.87 21.93,37.67C22.07,37.91 22.2,38.16 22.32,38.42C22.34,38.47 22.37,38.52 22.39,38.57C22.39,38.59 22.41,38.62 22.42,38.64C22.34,38.49 22.39,38.58 22.42,38.62C22.45,38.7 22.48,38.77 22.51,38.85C22.55,38.96 22.57,39.07 22.6,39.18C22.63,39.3 22.6,39.05 22.6,39.18L22.6,39.25C22.6,39.34 22.63,39.12 22.6,39.19C22.48,39.55 22.9,39.81 23.2,39.65C26.94,37.65 30.88,36.03 34.95,34.82C36.1,34.48 37.25,34.17 38.42,33.89C38.93,33.77 38.72,32.98 38.2,33.1L38.14,33.09Z" style="fill:rgb(126,48,225);fill-rule:nonzero;"/>
                    <path d="M24.2,45.51C24.32,46.17 25.03,46.53 25.65,46.51C25.99,46.5 26.32,46.4 26.64,46.31C26.95,46.22 27.25,46.13 27.55,46.04C28.74,45.67 29.92,45.24 31.08,44.77C33.45,43.81 35.76,42.69 38.04,41.54C38.64,41.24 39.24,40.95 39.82,40.63C40.35,40.33 40.88,39.93 41.14,39.36C41.25,39.12 41.21,38.83 40.96,38.69C40.75,38.57 40.4,38.62 40.29,38.87C40.24,38.98 40.18,39.08 40.12,39.17C40.09,39.22 40.12,39.17 40.12,39.17C40.1,39.19 40.08,39.22 40.06,39.24C40.02,39.29 39.97,39.33 39.93,39.37C39.89,39.41 39.84,39.45 39.79,39.49C39.85,39.44 39.73,39.53 39.72,39.54C39.62,39.61 39.52,39.67 39.41,39.73C38.93,40.01 38.43,40.24 37.94,40.49C36.87,41.03 35.81,41.56 34.73,42.08C32.59,43.11 30.45,44.04 28.19,44.8C27.55,45.01 26.9,45.21 26.25,45.39C26.1,45.43 25.95,45.47 25.79,45.5C25.73,45.51 25.69,45.52 25.6,45.52L25.51,45.52C25.35,45.52 25.51,45.52 25.45,45.52C25.42,45.52 25.39,45.51 25.36,45.5C25.34,45.5 25.25,45.45 25.33,45.5C25.3,45.49 25.17,45.4 25.24,45.45C25.22,45.43 25.2,45.41 25.17,45.39C25.14,45.36 25.14,45.34 25.17,45.39C25.16,45.37 25.14,45.34 25.13,45.31C25.16,45.39 25.13,45.29 25.13,45.26C25.08,45 24.76,44.85 24.53,44.92C24.25,45 24.14,45.26 24.19,45.52L24.2,45.51Z" style="fill:rgb(126,48,225);fill-rule:nonzero;"/>
                    <path d="M23.41,41.48C25.4,40.4 27.53,39.58 29.72,39C31.96,38.4 34.25,38.05 36.57,37.97C37.83,37.93 39.1,37.97 40.35,38.13C40.57,38.16 40.76,37.92 40.76,37.72C40.76,37.48 40.57,37.34 40.35,37.31C38.04,37.04 35.7,37.11 33.4,37.43C31.1,37.75 28.75,38.33 26.54,39.16C25.32,39.62 24.14,40.15 22.99,40.77C22.53,41.02 22.94,41.73 23.4,41.48L23.41,41.48Z" style="fill:rgb(126,48,225);fill-rule:nonzero;"/>
                    <path d="M24.19,43.68C26.98,42.12 30.02,41.03 33.17,40.44C34.04,40.28 34.91,40.16 35.79,40.08C36.01,40.06 36.2,39.91 36.2,39.67C36.2,39.46 36.01,39.24 35.79,39.26C32.49,39.57 29.27,40.41 26.24,41.75C25.4,42.12 24.58,42.53 23.78,42.98C23.32,43.24 23.73,43.95 24.19,43.69L24.19,43.68Z" style="fill:rgb(126,48,225);fill-rule:nonzero;"/>
                    <path d="M28.97,36.88C29.5,36.88 29.5,36.06 28.97,36.06C28.44,36.06 28.44,36.88 28.97,36.88Z" style="fill:rgb(126,48,225);fill-rule:nonzero;"/>
                    <path d="M29.08,36.86C31.67,36.17 34.36,35.83 37.04,35.92C37.81,35.95 38.58,36.01 39.34,36.11C39.56,36.14 39.75,35.9 39.75,35.7C39.75,35.45 39.56,35.32 39.34,35.29C36.6,34.94 33.82,35.06 31.11,35.56C30.35,35.7 29.6,35.87 28.85,36.07C28.34,36.2 28.56,37 29.07,36.86L29.08,36.86Z" style="fill:rgb(126,48,225);fill-rule:nonzero;"/>
                </g>
                <g transform="matrix(10.812808,0,0,10.58306,-6.212812,194.321109)">
                    <path d="M23.24,32.34L22.32,31.97L22.43,32.39C23.82,31.2 25.29,30.01 27.02,29.35C28.75,28.69 30.52,28.55 32.3,28.4L32.06,28.08L31.8,29.03L32.04,28.85C28.69,28.87 25.45,30.14 22.99,32.41C22.75,32.63 23.11,32.98 23.34,32.76C25.71,30.58 28.83,29.36 32.04,29.35C32.15,29.35 32.25,29.27 32.28,29.17L32.54,28.22C32.58,28.07 32.46,27.89 32.3,27.9C30.44,28.06 28.53,28.22 26.78,28.91C25.03,29.6 23.5,30.81 22.07,32.04C21.91,32.18 22.02,32.4 22.18,32.46L23.1,32.83C23.4,32.95 23.53,32.47 23.23,32.35L23.24,32.34Z" style="fill:white;fill-rule:nonzero;"/>
                    <path d="M22.86,32.25C25.31,29.96 28.69,28.64 32.05,28.64" style="fill:none;fill-rule:nonzero;stroke:rgb(126,48,225);stroke-width:0.55px;"/>
                    <g>
                        <path d="M26.05,30.42C24.48,25.86 22.31,21.51 19.61,17.52C19.54,17.42 19.44,17.38 19.33,17.4C18.18,17.65 16.96,17.75 15.82,17.4C14.68,17.05 13.03,16.02 13.4,14.54C13.87,12.7 16.28,13.07 17.37,14C18.25,14.75 18.9,15.78 19.57,16.72C19.63,16.81 19.74,16.87 19.85,16.84C21.39,16.38 22.92,15.81 24.33,15.05C24.43,14.99 24.46,14.87 24.45,14.77C24.26,13.69 23.99,12.56 24.03,11.46C24.08,10.07 25.1,8.22 26.79,8.78C28.36,9.3 28.1,11.28 27.51,12.48C26.97,13.57 26.08,14.41 25.09,15.07C24.99,15.14 24.95,15.24 24.97,15.35C25.86,20.09 27.18,24.74 28.94,29.24L29.12,28.93L28.22,29.12L28.53,29.3C26.81,24.9 25.51,20.35 24.62,15.7C24.59,15.53 24.38,15.48 24.25,15.55C22.97,16.2 21.62,16.71 20.26,17.14C20.11,17.19 20.02,17.37 20.11,17.51C21.55,19.67 22.82,21.93 23.93,24.27C24.52,25.5 25.05,26.76 25.54,28.04C25.66,28.35 25.77,28.66 25.89,28.97C25.91,29.03 26.25,29.73 26.25,29.78C26.25,29.93 26.23,29.88 26.04,30.04C25.94,30.13 25.8,30.2 25.68,30.27C25.41,30.44 25.66,30.88 25.93,30.7L26.65,30.23C26.74,30.17 26.8,30.05 26.77,29.95C25.23,25.48 23.16,21.2 20.54,17.26L20.39,17.63C21.8,17.18 23.19,16.66 24.5,15.99L24.13,15.84C25.02,20.48 26.32,25.03 28.04,29.44C28.09,29.57 28.2,29.65 28.35,29.62L29.25,29.43C29.37,29.4 29.47,29.24 29.43,29.12C28.39,26.44 27.49,23.71 26.75,20.94C26.39,19.57 26.06,18.19 25.77,16.81C25.72,16.55 25.64,16.28 25.61,16.02C25.54,15.48 25.5,15.56 25.82,15.19C26.18,14.79 26.67,14.5 27.04,14.08C28.15,12.81 29.22,10.41 27.93,8.9C26.9,7.69 25.01,8.16 24.18,9.35C23.64,10.13 23.5,11.08 23.55,12.01C23.58,12.51 23.66,13.02 23.74,13.51C23.89,14.45 24.05,14.69 23.1,15.12C22.46,15.41 21.79,15.66 21.13,15.9C20.39,16.17 20.12,16.41 19.55,15.83C18.79,15.05 18.33,14.08 17.44,13.41C16.12,12.43 13.77,12.36 13.03,14.12C12.29,15.88 14.06,17.35 15.54,17.83C16.11,18.02 16.72,18.1 17.32,18.12C17.73,18.13 18.76,17.83 19.15,17.95C19.68,18.11 20.15,19.22 20.42,19.65C20.83,20.31 21.22,20.97 21.59,21.65C23.18,24.49 24.52,27.47 25.58,30.55C25.68,30.85 26.17,30.72 26.06,30.42L26.05,30.42Z" style="fill:white;fill-rule:nonzero;"/>
                        <path d="M15.56,13.61C14.91,13.58 14.11,13.85 13.85,14.5C13.57,15.2 14.06,15.92 14.59,16.34C15.8,17.29 17.45,17.34 18.9,17.07C19.05,17.04 19.14,16.83 19.05,16.7C18.56,16.01 18.06,15.29 17.48,14.68C16.96,14.13 16.33,13.68 15.56,13.61C15.24,13.58 15.24,14.08 15.56,14.11C16.24,14.17 16.79,14.66 17.23,15.15C17.74,15.71 18.18,16.34 18.62,16.96L18.77,16.59C17.6,16.81 16.3,16.8 15.24,16.18C14.81,15.93 14.27,15.48 14.27,14.93C14.27,14.3 15.07,14.1 15.56,14.12C15.88,14.13 15.88,13.63 15.56,13.62L15.56,13.61Z" style="fill:white;fill-rule:nonzero;"/>
                        <path d="M26.4,9.08C25.38,9.05 24.69,9.93 24.51,10.86C24.4,11.41 24.44,11.96 24.51,12.51C24.59,13.13 24.7,13.75 24.8,14.37C24.83,14.52 25.05,14.61 25.17,14.52C26.19,13.78 27.1,12.78 27.44,11.54C27.7,10.59 27.65,9.2 26.4,9.08C26.08,9.05 26.08,9.55 26.4,9.58C27.36,9.67 27.08,11.09 26.87,11.68C26.52,12.67 25.76,13.48 24.92,14.09L25.29,14.24C25.13,13.27 24.88,12.25 24.96,11.26C25.03,10.47 25.49,9.55 26.4,9.58C26.72,9.59 26.72,9.09 26.4,9.08Z" style="fill:white;fill-rule:nonzero;"/>
                    </g>
                    <path d="M26.17,30.25C24.4,25.03 21.65,19.67 18.28,15.29C17.69,14.52 17,13.76 16.06,13.48C15.12,13.2 13.86,13.64 13.62,14.59C13.44,15.31 13.89,16.04 14.48,16.5C15.45,17.26 16.78,17.5 18.04,17.4C19.3,17.3 20.52,16.88 21.71,16.44C23.1,15.92 24.5,15.35 25.66,14.43C26.82,13.51 27.72,12.18 27.79,10.75C27.82,10.17 27.68,9.54 27.23,9.17C26.7,8.74 25.85,8.8 25.28,9.21C24.71,9.62 24.39,10.3 24.29,10.98C24.19,11.66 24.29,12.34 24.39,13.01C24.847,16.027 25.592,19.169 26.46,22.206C26.642,22.844 26.83,23.478 27.022,24.105C27.204,24.702 27.39,25.293 27.578,25.876C27.96,27.059 28.351,28.208 28.74,29.31" style="fill:none;fill-rule:nonzero;stroke:rgb(126,48,225);stroke-width:0.55px;"/>
                </g>
            </g>
            <g transform="matrix(1.081847,-0,0,1.139874,236.40139,381.658619)">
                <g transform="matrix(22.273359,0,0,22.273359,13.939374,-86.531943)">
                    <path d="M1,33.61L2.26,28.2C4.35,30.43 7.15,31.42 9.13,31.42C11.8,31.42 12.57,30.21 12.57,29.17C12.57,28.13 11.91,27.49 8.42,26.48C3.94,25.19 1.27,23.51 1.27,20.02C1.27,15.87 4.93,13.4 10.56,13.4C13.97,13.4 16.58,13.84 18.2,14.77L17.1,19.58C14.85,17.68 12.76,16.83 10.45,16.83C8.14,16.83 7.56,17.87 7.56,18.56C7.56,19.55 8.47,20.02 10.53,20.62C16.58,22.43 19.16,24.17 19.16,27.85C19.16,31.89 15.81,34.89 9.07,34.89C5.17,34.89 2.58,34.34 0.99,33.63L1,33.61Z" style="fill:white;fill-rule:nonzero;"/>
                </g>
                <g transform="matrix(22.273359,0,0,22.273359,13.939374,-86.531943)">
                    <path d="M19.74,30.69C19.74,27.47 22.6,26.02 27.16,26.02C27.79,26.02 28.29,26.05 28.73,26.08L28.73,25.28C28.73,24.04 28.21,23.41 26.59,23.41C25.11,23.41 23.04,24.01 21.29,25.8L20.52,21.57C21.81,20.83 24.07,20.25 26.87,20.25C30.91,20.25 33.52,20.83 34.4,23.58C34.59,24.16 34.67,25.01 34.67,26.14L34.67,30.26C34.67,31.83 34.849,33.937 34.929,34.877L28.934,34.877C28.994,34.387 28.98,33.4 29.01,32.79C28.21,34.27 26.51,34.88 24.67,34.88C21.62,34.88 19.75,33.4 19.75,30.7L19.74,30.69ZM27.08,31.65C28.07,31.65 28.73,30.77 28.73,29.51L28.73,28.38C28.46,28.35 28.15,28.33 27.91,28.33C26.76,28.33 25.79,28.77 25.79,30.14C25.79,31.21 26.37,31.65 27.08,31.65Z" style="fill:white;fill-rule:nonzero;"/>
                </g>
                <g transform="matrix(22.273359,0,0,22.273359,13.939374,-86.531943)">
                    <path d="M36.48,24.1C36.48,19.24 36.37,15.63 36.23,13.3L42.61,13.14C42.47,14.82 42.39,18.66 42.39,22.87C42.39,29.14 42.633,33.527 42.713,34.877L36.023,34.877C36.213,32.897 36.48,28.23 36.48,24.11L36.48,24.1Z" style="fill:white;fill-rule:nonzero;"/>
                </g>
            </g>
        </g>
    </g>
</svg>
